<svg width="18" height="18" viewBox="0 0 18 18" fill="none" xmlns="http://www.w3.org/2000/svg">
<path d="M6 6.75C6 7.16421 6.33579 7.5 6.75 7.5C7.16421 7.5 7.5 7.16421 7.5 6.75C7.5 6.33579 7.16421 6 6.75 6C6.33579 6 6 6.33579 6 6.75Z" fill="#8990AE"/>
<path d="M10.5 11.25C10.5 11.6642 10.8358 12 11.25 12C11.6642 12 12 11.6642 12 11.25C12 10.8358 11.6642 10.5 11.25 10.5C10.8358 10.5 10.5 10.8358 10.5 11.25Z" fill="#8990AE"/>
<path d="M6.2196 10.7197C5.92671 11.0126 5.92671 11.4875 6.2196 11.7804C6.5125 12.0733 6.98737 12.0733 7.28026 11.7804L6.2196 10.7197ZM11.5229 7.53776C11.8158 7.24487 11.8158 6.77 11.5229 6.4771C11.23 6.18421 10.7551 6.18421 10.4622 6.4771L11.5229 7.53776ZM2.26865 5.32848L2.93596 5.67081L2.26865 5.32848ZM2.4546 5.0064L3.08473 5.41315H3.08473L2.4546 5.0064ZM2.4546 12.9937L3.08473 12.587H3.08473L2.4546 12.9937ZM2.26865 12.6717L2.93596 12.3293L2.26865 12.6717ZM9.18589 16.6653L9.22308 17.4144L9.18589 16.6653ZM8.81398 16.6653L8.77679 17.4144L8.81398 16.6653ZM15.7312 12.6717L15.0639 12.3293L15.7312 12.6717ZM15.5453 12.9937L14.9151 12.587L15.5453 12.9937ZM15.5453 5.0064L14.9151 5.41315L15.5453 5.0064ZM15.7312 5.32848L15.0639 5.67081L15.7312 5.32848ZM9.18589 1.33481L9.22308 0.585736L9.18589 1.33481ZM8.81398 1.33481L8.77679 0.585736L8.81398 1.33481ZM7.28026 11.7804L11.5229 7.53776L10.4622 6.4771L6.2196 10.7197L7.28026 11.7804ZM2.60522 9.00007C2.60522 8.0317 2.60591 7.35415 2.65393 6.81682C2.70066 6.29379 2.78878 5.95772 2.93596 5.67081L1.60133 4.98615C1.33509 5.50515 1.2165 6.04964 1.15988 6.68332C1.10454 7.30269 1.10522 8.05799 1.10522 9.00007H2.60522ZM5.05258 2.16305C4.23671 2.6341 3.58225 3.01115 3.07354 3.36876C2.55307 3.73464 2.14082 4.10958 1.82448 4.59966L3.08473 5.41315C3.2596 5.14224 3.50658 4.89789 3.93617 4.5959C4.37752 4.28565 4.96394 3.94628 5.80258 3.46209L5.05258 2.16305ZM2.93596 5.67081C2.98126 5.58252 3.03091 5.49652 3.08473 5.41315L1.82448 4.59966C1.74375 4.72472 1.66928 4.85371 1.60133 4.98615L2.93596 5.67081ZM5.80258 14.5381C4.96394 14.0539 4.37752 13.7145 3.93617 13.4042C3.50658 13.1023 3.2596 12.8579 3.08473 12.587L1.82448 13.4005C2.14082 13.8906 2.55307 14.2655 3.07354 14.6314C3.58225 14.989 4.23671 15.3661 5.05258 15.8371L5.80258 14.5381ZM1.10522 9.00007C1.10522 9.94216 1.10454 10.6975 1.15988 11.3168C1.2165 11.9505 1.33509 12.495 1.60133 13.014L2.93596 12.3293C2.78878 12.0424 2.70066 11.7064 2.65393 11.1833C2.60591 10.646 2.60522 9.96845 2.60522 9.00007H1.10522ZM3.08473 12.587C3.03091 12.5036 2.98126 12.4176 2.93596 12.3293L1.60133 13.014C1.66928 13.1464 1.74375 13.2754 1.82448 13.4005L3.08473 12.587ZM12.1973 14.5381C11.3586 15.0222 10.7715 15.3604 10.2822 15.5875C9.80586 15.8085 9.47075 15.9003 9.1487 15.9163L9.22308 17.4144C9.80566 17.3855 10.3365 17.2159 10.9136 16.9481C11.4777 16.6864 12.1314 16.3081 12.9473 15.8371L12.1973 14.5381ZM5.05258 15.8371C5.86845 16.3081 6.52222 16.6864 7.08628 16.9481C7.66336 17.2159 8.1942 17.3855 8.77679 17.4144L8.85117 15.9163C8.52912 15.9003 8.19401 15.8085 7.71769 15.5875C7.22833 15.3604 6.64122 15.0222 5.80258 14.5381L5.05258 15.8371ZM9.1487 15.9163C9.04958 15.9212 8.95029 15.9212 8.85117 15.9163L8.77679 17.4144C8.92546 17.4218 9.07441 17.4218 9.22308 17.4144L9.1487 15.9163ZM15.3946 9.00007C15.3946 9.96845 15.394 10.646 15.3459 11.1833C15.2992 11.7064 15.2111 12.0424 15.0639 12.3293L16.3985 13.014C16.6648 12.495 16.7834 11.9505 16.84 11.3168C16.8953 10.6975 16.8946 9.94216 16.8946 9.00007H15.3946ZM12.9473 15.8371C13.7632 15.3661 14.4176 14.989 14.9263 14.6314C15.4468 14.2655 15.859 13.8906 16.1754 13.4005L14.9151 12.587C14.7403 12.8579 14.4933 13.1023 14.0637 13.4042C13.6224 13.7145 13.0359 14.0539 12.1973 14.5381L12.9473 15.8371ZM15.0639 12.3293C15.0186 12.4176 14.969 12.5036 14.9151 12.587L16.1754 13.4005C16.2561 13.2754 16.3306 13.1464 16.3985 13.014L15.0639 12.3293ZM12.1973 3.46209C13.0359 3.94628 13.6224 4.28565 14.0637 4.5959C14.4933 4.89789 14.7403 5.14224 14.9151 5.41315L16.1754 4.59966C15.859 4.10958 15.4468 3.73464 14.9263 3.36876C14.4176 3.01115 13.7632 2.6341 12.9473 2.16305L12.1973 3.46209ZM16.8946 9.00007C16.8946 8.05799 16.8953 7.30269 16.84 6.68332C16.7834 6.04964 16.6648 5.50515 16.3985 4.98615L15.0639 5.67081C15.2111 5.95772 15.2992 6.29379 15.3459 6.81682C15.394 7.35415 15.3946 8.0317 15.3946 9.00007H16.8946ZM14.9151 5.41315C14.969 5.49653 15.0186 5.58252 15.0639 5.67081L16.3985 4.98615C16.3306 4.85371 16.2561 4.72472 16.1754 4.59966L14.9151 5.41315ZM12.9473 2.16305C12.1314 1.69201 11.4777 1.31376 10.9136 1.05201C10.3365 0.784207 9.80566 0.614661 9.22308 0.585736L9.1487 2.08389C9.47075 2.09988 9.80586 2.1916 10.2822 2.41264C10.7715 2.63973 11.3586 2.9779 12.1973 3.46209L12.9473 2.16305ZM5.80258 3.46209C6.64122 2.9779 7.22833 2.63973 7.71769 2.41264C8.19401 2.1916 8.52912 2.09988 8.85117 2.08389L8.77679 0.585736C8.1942 0.614661 7.66336 0.784207 7.08628 1.05201C6.52222 1.31376 5.86845 1.69201 5.05258 2.16305L5.80258 3.46209ZM9.22308 0.585736C9.07441 0.578355 8.92546 0.578355 8.77679 0.585736L8.85117 2.08389C8.95029 2.07897 9.04958 2.07897 9.1487 2.08389L9.22308 0.585736Z" fill="#8990AE"/>
</svg>
