<svg width="18" height="18" viewBox="0 0 18 18" fill="none" xmlns="http://www.w3.org/2000/svg">
<path d="M1.49995 9L0.75749 9.10607L0.764735 9.15678L0.778809 9.20604L1.49995 9ZM6.31742 4.05777L6.01282 4.74312L6.31742 4.05777ZM6.71566 4.23476L7.02026 3.5494V3.5494L6.71566 4.23476ZM8.22124 4.81457L8.0655 5.54822L8.22124 4.81457ZM11.2842 4.23476L10.9796 3.5494V3.5494L11.2842 4.23476ZM9.77866 4.81457L9.9344 5.54822L9.77866 4.81457ZM11.6699 13.1533L12.3008 12.7477L12.3008 12.7477L11.6699 13.1533ZM6.22097 13.3229L5.59008 12.9173V12.9173L6.22097 13.3229ZM2.5816 12.7858L3.30275 12.5797L2.5816 12.7858ZM16.0429 12.1996L15.3004 12.0935L16.0429 12.1996ZM16.6677 7.82583L17.4102 7.9319L16.6677 7.82583ZM6.50174 12.8861L7.13263 13.2917L6.50174 12.8861ZM11.4982 12.8861L10.8673 13.2917L10.8673 13.2917L11.4982 12.8861ZM11.6825 4.05777L11.9871 4.74312V4.74312L11.6825 4.05777ZM1.33221 7.82583L0.589752 7.9319L1.33221 7.82583ZM3.74995 7.5C3.33574 7.5 2.99995 7.83579 2.99995 8.25C2.99995 8.66421 3.33574 9 3.74995 9V7.5ZM6.74995 9C7.16417 9 7.49995 8.66421 7.49995 8.25C7.49995 7.83579 7.16417 7.5 6.74995 7.5V9ZM4.49995 9.75C4.49995 10.1642 4.83574 10.5 5.24995 10.5C5.66417 10.5 5.99995 10.1642 5.99995 9.75H4.49995ZM5.99995 6.75C5.99995 6.33579 5.66417 6 5.24995 6C4.83574 6 4.49995 6.33579 4.49995 6.75H5.99995ZM3.30275 12.5797L2.2211 8.79396L0.778809 9.20604L1.86046 12.9918L3.30275 12.5797ZM2.24241 8.89393L2.07468 7.71977L0.589752 7.9319L0.75749 9.10607L2.24241 8.89393ZM5.87086 12.4805L5.59008 12.9173L6.85185 13.7284L7.13263 13.2917L5.87086 12.4805ZM12.3008 12.7477L12.129 12.4805L10.8673 13.2917L11.039 13.5588L12.3008 12.7477ZM6.01282 4.74312L6.41106 4.92012L7.02026 3.5494L6.62203 3.37241L6.01282 4.74312ZM11.5888 4.92012L11.9871 4.74312L11.3779 3.37241L10.9796 3.5494L11.5888 4.92012ZM4.86717 4.5C5.26186 4.5 5.65215 4.58283 6.01282 4.74312L6.62203 3.37241C6.06957 3.12687 5.47173 3 4.86717 3V4.5ZM6.41106 4.92012C7.12914 5.23927 7.58575 5.44638 8.0655 5.54822L8.37699 4.08092C8.08709 4.01938 7.79653 3.89441 7.02026 3.5494L6.41106 4.92012ZM10.9796 3.5494C10.2034 3.89441 9.91281 4.01938 9.62292 4.08092L9.9344 5.54822C10.4142 5.44638 10.8708 5.23927 11.5888 4.92012L10.9796 3.5494ZM8.0655 5.54822C8.6816 5.67901 9.3183 5.67901 9.9344 5.54822L9.62292 4.08092C9.21218 4.16811 8.78772 4.16811 8.37699 4.08092L8.0655 5.54822ZM13.6787 13.5C13.1214 13.5 12.6022 13.2166 12.3008 12.7477L11.039 13.5588C11.6164 14.457 12.611 15 13.6787 15V13.5ZM5.59008 12.9173C5.35662 13.2805 4.9545 13.5 4.52276 13.5V15C5.4649 15 6.34239 14.5209 6.85185 13.7284L5.59008 12.9173ZM1.86046 12.9918C2.20008 14.1805 3.28653 15 4.52276 15V13.5C3.95625 13.5 3.45838 13.1245 3.30275 12.5797L1.86046 12.9918ZM15.3004 12.0935C15.1851 12.9006 14.494 13.5 13.6787 13.5V15C15.2404 15 16.5645 13.8517 16.7853 12.3057L15.3004 12.0935ZM17.4102 7.9319C17.782 5.32888 15.7622 3 13.1327 3V4.5C14.8494 4.5 16.168 6.0204 15.9252 7.71977L17.4102 7.9319ZM7.13263 13.2917C8.00646 11.9324 9.99345 11.9324 10.8673 13.2917L12.129 12.4805C10.6648 10.2028 7.33514 10.2028 5.87086 12.4805L7.13263 13.2917ZM11.9871 4.74312C12.3478 4.58283 12.738 4.5 13.1327 4.5V3C12.5282 3 11.9303 3.12687 11.3779 3.37241L11.9871 4.74312ZM2.07468 7.71977C1.83191 6.0204 3.15055 4.5 4.86717 4.5V3C2.23772 3 0.217892 5.32888 0.589752 7.9319L2.07468 7.71977ZM5.99995 9.75V6.75H4.49995V9.75H5.99995ZM15.9252 7.71977L15.3004 12.0935L16.7853 12.3057L17.4102 7.9319L15.9252 7.71977ZM3.74995 9H5.24995V7.5H3.74995V9ZM5.24995 9H6.74995V7.5H5.24995V9Z" fill="#8990AE"/>
<path d="M13.5 6.75C13.5 7.16421 13.1642 7.5 12.75 7.5C12.3358 7.5 12 7.16421 12 6.75C12 6.33579 12.3358 6 12.75 6C13.1642 6 13.5 6.33579 13.5 6.75Z" fill="#8990AE"/>
<path d="M12 8.25C12 8.66421 11.6642 9 11.25 9C10.8358 9 10.5 8.66421 10.5 8.25C10.5 7.83579 10.8358 7.5 11.25 7.5C11.6642 7.5 12 7.83579 12 8.25Z" fill="#8990AE"/>
<path d="M15 8.25C15 8.66421 14.6642 9 14.25 9C13.8358 9 13.5 8.66421 13.5 8.25C13.5 7.83579 13.8358 7.5 14.25 7.5C14.6642 7.5 15 7.83579 15 8.25Z" fill="#8990AE"/>
<path d="M13.5 9.75C13.5 10.1642 13.1642 10.5 12.75 10.5C12.3358 10.5 12 10.1642 12 9.75C12 9.33579 12.3358 9 12.75 9C13.1642 9 13.5 9.33579 13.5 9.75Z" fill="#8990AE"/>
</svg>
