<svg width="18" height="18" viewBox="0 0 18 18" fill="none" xmlns="http://www.w3.org/2000/svg">
<path d="M10.5 5.8125C10.5 6.64093 9.82843 7.3125 9 7.3125V8.8125C10.6569 8.8125 12 7.46935 12 5.8125H10.5ZM9 7.3125C8.17157 7.3125 7.5 6.64093 7.5 5.8125H6C6 7.46935 7.34315 8.8125 9 8.8125V7.3125ZM7.5 5.8125C7.5 4.98407 8.17157 4.3125 9 4.3125V2.8125C7.34315 2.8125 6 4.15565 6 5.8125H7.5ZM9 4.3125C9.82843 4.3125 10.5 4.98407 10.5 5.8125H12C12 4.15565 10.6569 2.8125 9 2.8125V4.3125ZM6.75 11.0625H11.25V9.5625H6.75V11.0625ZM11.25 14.0625H6.75V15.5625H11.25V14.0625ZM6.75 14.0625C5.92157 14.0625 5.25 13.3909 5.25 12.5625H3.75C3.75 14.2194 5.09315 15.5625 6.75 15.5625V14.0625ZM12.75 12.5625C12.75 13.3909 12.0784 14.0625 11.25 14.0625V15.5625C12.9069 15.5625 14.25 14.2194 14.25 12.5625H12.75ZM11.25 11.0625C12.0784 11.0625 12.75 11.7341 12.75 12.5625H14.25C14.25 10.9056 12.9069 9.5625 11.25 9.5625V11.0625ZM6.75 9.5625C5.09315 9.5625 3.75 10.9056 3.75 12.5625H5.25C5.25 11.7341 5.92157 11.0625 6.75 11.0625V9.5625Z" fill="#8990AE"/>
<path d="M5.81411 7.79149C5.69581 7.60145 5.47385 7.5 5.25 7.5C4.31802 7.5 3.5625 6.74448 3.5625 5.8125C3.5625 4.88052 4.31802 4.125 5.25 4.125C5.47385 4.125 5.69581 4.02355 5.81411 3.83351C5.81934 3.82511 5.8246 3.81672 5.8299 3.80836C6.02685 3.49748 5.92706 3.0573 5.56125 3.01703C5.45905 3.00578 5.3552 3 5.25 3C3.6967 3 2.4375 4.2592 2.4375 5.8125C2.4375 7.3658 3.6967 8.625 5.25 8.625C5.3552 8.625 5.45905 8.61922 5.56125 8.60797C5.92706 8.5677 6.02685 8.12752 5.8299 7.81664C5.8246 7.80828 5.81934 7.79989 5.81411 7.79149Z" fill="#8990AE"/>
<path d="M3.53122 13.7377C3.44608 13.5956 3.2958 13.5 3.13019 13.5H3C2.06802 13.5 1.3125 12.7445 1.3125 11.8125C1.3125 10.8805 2.06802 10.125 3 10.125H3.13019C3.2958 10.125 3.44608 10.0294 3.53122 9.88735C3.73904 9.54062 3.51351 9 3.10927 9H3C1.4467 9 0.1875 10.2592 0.1875 11.8125C0.1875 13.3658 1.4467 14.625 3 14.625H3.10927C3.51351 14.625 3.73904 14.0844 3.53122 13.7377Z" fill="#8990AE"/>
<path d="M12.1701 7.81664C11.9732 8.12752 12.0729 8.5677 12.4387 8.60797C12.5409 8.61922 12.6448 8.625 12.75 8.625C14.3033 8.625 15.5625 7.3658 15.5625 5.8125C15.5625 4.2592 14.3033 3 12.75 3C12.6448 3 12.5409 3.00578 12.4387 3.01703C12.0729 3.0573 11.9732 3.49748 12.1701 3.80836C12.1754 3.81672 12.1807 3.8251 12.1859 3.83351C12.3042 4.02354 12.5262 4.125 12.75 4.125C13.682 4.125 14.4375 4.88052 14.4375 5.8125C14.4375 6.74448 13.682 7.5 12.75 7.5C12.5262 7.5 12.3042 7.60145 12.1859 7.79149C12.1807 7.79989 12.1754 7.80828 12.1701 7.81664Z" fill="#8990AE"/>
<path d="M14.4688 13.7377C14.261 14.0844 14.4865 14.625 14.8907 14.625H15C16.5533 14.625 17.8125 13.3658 17.8125 11.8125C17.8125 10.2592 16.5533 9 15 9H14.8907C14.4865 9 14.261 9.54062 14.4688 9.88735C14.5539 10.0294 14.7042 10.125 14.8698 10.125H15C15.932 10.125 16.6875 10.8805 16.6875 11.8125C16.6875 12.7445 15.932 13.5 15 13.5H14.8698C14.7042 13.5 14.5539 13.5956 14.4688 13.7377Z" fill="#8990AE"/>
</svg>
