<svg width="18" height="18" viewBox="0 0 18 18" fill="none" xmlns="http://www.w3.org/2000/svg">
<path d="M9.57715 2.49838C8.95088 2.31584 8.34916 2.5658 7.77201 2.92989C7.19235 3.29557 6.48883 3.87541 5.60862 4.60087L4.82848 5.24384C4.67888 5.36714 4.61839 5.4168 4.55843 5.46147C4.05078 5.83976 3.44198 6.05832 2.80963 6.08926C2.73495 6.09292 2.65669 6.09307 2.46283 6.09307L2.43165 6.09307C2.26454 6.09302 2.13578 6.09298 2.02066 6.10586C1.06318 6.213 0.307441 6.96874 0.200303 7.92622C0.187422 8.04134 0.187458 8.1701 0.187506 8.33721V9.25965C0.187458 9.42676 0.187422 9.55552 0.200303 9.67064C0.30744 10.6281 1.06318 11.3839 2.02066 11.491C2.13578 11.5039 2.26454 11.5038 2.43166 11.5038L2.46283 11.5038C2.65669 11.5038 2.73495 11.5039 2.80963 11.5076C3.44198 11.5385 4.05078 11.7571 4.55844 12.1354C4.61839 12.1801 4.67888 12.2297 4.82848 12.353L5.60861 12.996C6.48882 13.7214 7.19235 14.3013 7.77201 14.667C8.34916 15.0311 8.95088 15.281 9.57715 15.0985C9.785 15.0379 9.98202 14.945 10.161 14.8231C10.7001 14.4559 10.89 13.8326 10.9761 13.1556C11.0625 12.4758 11.0625 11.5641 11.0625 10.4234V7.17342C11.0625 6.03277 11.0625 5.12109 10.9761 4.44121C10.89 3.76426 10.7001 3.14096 10.161 2.77376C9.98202 2.6519 9.785 2.55897 9.57715 2.49838Z" fill="#8990AE"/>
<path d="M14.6478 3.15068C14.4281 2.93101 14.0719 2.93101 13.8523 3.15068C13.6326 3.37035 13.6326 3.72651 13.8523 3.94618L14.3773 4.47118C14.8338 4.92771 15.0355 5.13018 15.1872 5.31172C16.8739 7.3302 16.8739 10.2667 15.1872 12.2851C15.0355 12.4667 14.8338 12.6691 14.3773 13.1257L13.8523 13.6507C13.6326 13.8704 13.6326 14.2265 13.8523 14.4462C14.0719 14.6658 14.4281 14.6658 14.6478 14.4462L15.1995 13.8944C15.6222 13.4718 15.8623 13.2317 16.0504 13.0065C18.0862 10.5704 18.0862 7.02643 16.0504 4.59034C15.8623 4.3652 15.6221 4.12504 15.1995 3.70239L14.6478 3.15068Z" fill="#8990AE"/>
<path d="M13.1478 5.40068C12.9281 5.18101 12.5719 5.18101 12.3523 5.40068C12.1326 5.62035 12.1326 5.97651 12.3523 6.19618L12.6523 6.49618C12.6985 6.54245 12.7175 6.56139 12.7327 6.57703C13.9347 7.81403 13.9347 9.78282 12.7327 11.0198C12.7175 11.0355 12.6985 11.0544 12.6523 11.1007L12.3523 11.4007C12.1326 11.6204 12.1326 11.9765 12.3523 12.1962C12.5719 12.4158 12.9281 12.4158 13.1478 12.1962L13.4518 11.8922C13.4928 11.8512 13.518 11.826 13.5395 11.8038C15.1658 10.1303 15.1658 7.4666 13.5395 5.79301C13.5179 5.77084 13.4929 5.74579 13.4517 5.70467L13.1478 5.40068Z" fill="#8990AE"/>
</svg>
