<svg width="18" height="18" viewBox="0 0 18 18" fill="none" xmlns="http://www.w3.org/2000/svg">
<path d="M12 12.1505L11.7 11.8505C10.2088 10.3594 7.79117 10.3594 6.3 11.8505L6 12.1505M14.25 9.15054L13.725 8.62554C11.1155 6.01599 6.88455 6.01599 4.275 8.62554L3.75 9.15053M17.25 6.15054L16.425 5.32554C12.3243 1.22482 5.67572 1.22482 1.575 5.32553L0.75 6.15053" stroke="#8990AE" stroke-width="1.5" stroke-linecap="round"/>
<path d="M10 15C10 15.5523 9.55228 16 9 16C8.44772 16 8 15.5523 8 15C8 14.4477 8.44772 14 9 14C9.55228 14 10 14.4477 10 15Z" fill="#8990AE"/>
</svg>
