<svg width="18" height="18" viewBox="0 0 18 18" fill="none" xmlns="http://www.w3.org/2000/svg">
<path d="M6 3L6 15" stroke="#8990AE" stroke-width="1.5" stroke-linecap="round" stroke-dasharray="2 3"/>
<path d="M1.5 6.33333C1.5 4.49238 2.99238 3 4.83333 3H13.1667C15.0076 3 16.5 4.49238 16.5 6.33333C16.5 6.7408 16.2663 7.11216 15.899 7.28849L15.5335 7.46394C14.2447 8.08253 14.2447 9.91747 15.5335 10.5361L15.899 10.7115C16.2663 10.8878 16.5 11.2592 16.5 11.6667C16.5 13.5076 15.0076 15 13.1667 15H4.83333C2.99238 15 1.5 13.5076 1.5 11.6667C1.5 11.2592 1.73367 10.8878 2.10102 10.7115L2.46654 10.5361C3.75526 9.91747 3.75526 8.08253 2.46654 7.46394L2.10102 7.28849C1.73367 7.11216 1.5 6.7408 1.5 6.33333Z" stroke="#8990AE" stroke-width="1.5"/>
<path d="M9.76314 7.30303C9.99507 6.56566 11.0049 6.56566 11.2369 7.30303C11.3406 7.63279 11.6381 7.85605 11.9737 7.85605C12.7243 7.85605 13.0363 8.84817 12.4291 9.30389C12.1576 9.50769 12.044 9.86894 12.1477 10.1987C12.3796 10.9361 11.5626 11.5492 10.9554 11.0935C10.6839 10.8897 10.3161 10.8897 10.0446 11.0935C9.43738 11.5492 8.62039 10.9361 8.85232 10.1987C8.95604 9.86894 8.84242 9.50769 8.57086 9.30389C7.96365 8.84817 8.27572 7.85605 9.02627 7.85605C9.36193 7.85605 9.65941 7.63279 9.76314 7.30303Z" stroke="#8990AE" stroke-width="1.5"/>
</svg>
