<svg width="61" height="18" viewBox="0 0 61 18" fill="none" xmlns="http://www.w3.org/2000/svg">
<path d="M4.72025 3.72417C6.72036 2.271 7.72042 1.54442 8.86253 1.50252C8.95415 1.49916 9.04586 1.49916 9.13748 1.50252C10.2796 1.54442 11.2796 2.271 13.2798 3.72417C15.2799 5.17734 16.2799 5.90392 16.6727 6.97718C16.7042 7.06328 16.7326 7.1505 16.7577 7.23868C17.0708 8.33784 16.6888 9.51347 15.9248 11.8647L14.634 15.8373C14.4289 16.4685 13.8407 16.8959 13.177 16.8959C12.3309 16.8959 11.645 16.21 11.645 15.3639V13.3022C11.645 12.5083 11.0015 11.8647 10.2076 11.8647H7.79244C6.99855 11.8647 6.35497 12.5083 6.35497 13.3022V15.3639C6.35497 16.21 5.66908 16.8959 4.82299 16.8959C4.15929 16.8959 3.57108 16.4685 3.36599 15.8373L2.07522 11.8647C1.31124 9.51347 0.929254 8.33784 1.24234 7.23868C1.26745 7.1505 1.29579 7.06328 1.3273 6.97718C1.72008 5.90392 2.72014 5.17734 4.72025 3.72417Z" fill="#8990AE"/>
<path d="M29.756 5.6H31.7V14H29.756V5.6ZM25.94 14H23.996V5.6H25.94V14ZM29.9 10.556H25.796V8.912H29.9V10.556ZM36.6274 14.096C35.9394 14.096 35.3274 13.952 34.7914 13.664C34.2634 13.376 33.8434 12.984 33.5314 12.488C33.2274 11.984 33.0754 11.412 33.0754 10.772C33.0754 10.124 33.2274 9.552 33.5314 9.056C33.8434 8.552 34.2634 8.16 34.7914 7.88C35.3274 7.592 35.9394 7.448 36.6274 7.448C37.3074 7.448 37.9154 7.592 38.4514 7.88C38.9874 8.16 39.4074 8.548 39.7114 9.044C40.0154 9.54 40.1674 10.116 40.1674 10.772C40.1674 11.412 40.0154 11.984 39.7114 12.488C39.4074 12.984 38.9874 13.376 38.4514 13.664C37.9154 13.952 37.3074 14.096 36.6274 14.096ZM36.6274 12.56C36.9394 12.56 37.2194 12.488 37.4674 12.344C37.7154 12.2 37.9114 11.996 38.0554 11.732C38.1994 11.46 38.2714 11.14 38.2714 10.772C38.2714 10.396 38.1994 10.076 38.0554 9.812C37.9114 9.548 37.7154 9.344 37.4674 9.2C37.2194 9.056 36.9394 8.984 36.6274 8.984C36.3154 8.984 36.0354 9.056 35.7874 9.2C35.5394 9.344 35.3394 9.548 35.1874 9.812C35.0434 10.076 34.9714 10.396 34.9714 10.772C34.9714 11.14 35.0434 11.46 35.1874 11.732C35.3394 11.996 35.5394 12.2 35.7874 12.344C36.0354 12.488 36.3154 12.56 36.6274 12.56ZM49.6867 7.448C50.1987 7.448 50.6507 7.552 51.0427 7.76C51.4427 7.96 51.7547 8.272 51.9787 8.696C52.2107 9.112 52.3267 9.648 52.3267 10.304V14H50.4547V10.592C50.4547 10.072 50.3467 9.688 50.1307 9.44C49.9147 9.192 49.6107 9.068 49.2187 9.068C48.9467 9.068 48.7027 9.132 48.4867 9.26C48.2707 9.38 48.1027 9.564 47.9827 9.812C47.8627 10.06 47.8027 10.376 47.8027 10.76V14H45.9307V10.592C45.9307 10.072 45.8227 9.688 45.6067 9.44C45.3987 9.192 45.0987 9.068 44.7067 9.068C44.4347 9.068 44.1907 9.132 43.9747 9.26C43.7587 9.38 43.5907 9.564 43.4707 9.812C43.3507 10.06 43.2907 10.376 43.2907 10.76V14H41.4187V7.544H43.2067V9.308L42.8707 8.792C43.0947 8.352 43.4107 8.02 43.8187 7.796C44.2347 7.564 44.7067 7.448 45.2347 7.448C45.8267 7.448 46.3427 7.6 46.7827 7.904C47.2307 8.2 47.5267 8.656 47.6707 9.272L47.0107 9.092C47.2267 8.588 47.5707 8.188 48.0427 7.892C48.5227 7.596 49.0707 7.448 49.6867 7.448ZM57.2555 14.096C56.5195 14.096 55.8715 13.952 55.3115 13.664C54.7595 13.376 54.3315 12.984 54.0275 12.488C53.7235 11.984 53.5715 11.412 53.5715 10.772C53.5715 10.124 53.7195 9.552 54.0155 9.056C54.3195 8.552 54.7315 8.16 55.2515 7.88C55.7715 7.592 56.3595 7.448 57.0155 7.448C57.6475 7.448 58.2155 7.584 58.7195 7.856C59.2315 8.12 59.6355 8.504 59.9315 9.008C60.2275 9.504 60.3755 10.1 60.3755 10.796C60.3755 10.868 60.3715 10.952 60.3635 11.048C60.3555 11.136 60.3475 11.22 60.3395 11.3H55.0955V10.208H59.3555L58.6355 10.532C58.6355 10.196 58.5675 9.904 58.4315 9.656C58.2955 9.408 58.1075 9.216 57.8675 9.08C57.6275 8.936 57.3475 8.864 57.0275 8.864C56.7075 8.864 56.4235 8.936 56.1755 9.08C55.9355 9.216 55.7475 9.412 55.6115 9.668C55.4755 9.916 55.4075 10.212 55.4075 10.556V10.844C55.4075 11.196 55.4835 11.508 55.6355 11.78C55.7955 12.044 56.0155 12.248 56.2955 12.392C56.5835 12.528 56.9195 12.596 57.3035 12.596C57.6475 12.596 57.9475 12.544 58.2035 12.44C58.4675 12.336 58.7075 12.18 58.9235 11.972L59.9195 13.052C59.6235 13.388 59.2515 13.648 58.8035 13.832C58.3555 14.008 57.8395 14.096 57.2555 14.096Z" fill="#8990AE"/>
</svg>
